<mxfile host="app.diagrams.net" modified="2022-08-24T13:36:33.471Z" agent="5.0 (Windows NT 10.0; Win64; x64) AppleWebKit/537.36 (KHTML, like Gecko) Chrome/104.0.0.0 Safari/537.36" etag="ZqF2yseQ0WMRKKfJ7wtY" version="20.2.5" type="github">
  <diagram id="C5RBs43oDa-KdzZeNtuy" name="Page-1">
    <mxGraphModel dx="1038" dy="571" grid="1" gridSize="10" guides="1" tooltips="1" connect="1" arrows="1" fold="1" page="1" pageScale="1" pageWidth="827" pageHeight="1169" math="0" shadow="0">
      <root>
        <object label="" doStuff="" id="WIyWlLk6GJQsqaUBKTNV-0">
          <mxCell />
        </object>
        <mxCell id="WIyWlLk6GJQsqaUBKTNV-1" parent="WIyWlLk6GJQsqaUBKTNV-0" />
        <mxCell id="YsifBy8PywC1y6vnwY9C-1" value="&lt;&lt;abstract&gt;&gt;&#xa;Creator" style="swimlane;fontStyle=0;align=center;verticalAlign=top;childLayout=stackLayout;horizontal=1;startSize=40;horizontalStack=0;resizeParent=1;resizeParentMax=0;resizeLast=0;collapsible=1;marginBottom=0;" vertex="1" parent="WIyWlLk6GJQsqaUBKTNV-1">
          <mxGeometry x="160" y="70" width="160" height="114" as="geometry" />
        </mxCell>
        <mxCell id="YsifBy8PywC1y6vnwY9C-2" value="+ field: type" style="text;strokeColor=none;fillColor=none;align=left;verticalAlign=top;spacingLeft=4;spacingRight=4;overflow=hidden;rotatable=0;points=[[0,0.5],[1,0.5]];portConstraint=eastwest;" vertex="1" parent="YsifBy8PywC1y6vnwY9C-1">
          <mxGeometry y="40" width="160" height="26" as="geometry" />
        </mxCell>
        <mxCell id="YsifBy8PywC1y6vnwY9C-3" value="" style="line;strokeWidth=1;fillColor=none;align=left;verticalAlign=middle;spacingTop=-1;spacingLeft=3;spacingRight=3;rotatable=0;labelPosition=right;points=[];portConstraint=eastwest;" vertex="1" parent="YsifBy8PywC1y6vnwY9C-1">
          <mxGeometry y="66" width="160" height="8" as="geometry" />
        </mxCell>
        <mxCell id="YsifBy8PywC1y6vnwY9C-4" value="+ someOperation()&#xa;+ createProduct() : Product" style="text;strokeColor=none;fillColor=none;align=left;verticalAlign=top;spacingLeft=4;spacingRight=4;overflow=hidden;rotatable=0;points=[[0,0.5],[1,0.5]];portConstraint=eastwest;" vertex="1" parent="YsifBy8PywC1y6vnwY9C-1">
          <mxGeometry y="74" width="160" height="40" as="geometry" />
        </mxCell>
        <mxCell id="YsifBy8PywC1y6vnwY9C-5" value="ConcreateCreatorA" style="swimlane;fontStyle=1;align=center;verticalAlign=top;childLayout=stackLayout;horizontal=1;startSize=26;horizontalStack=0;resizeParent=1;resizeParentMax=0;resizeLast=0;collapsible=1;marginBottom=0;" vertex="1" parent="WIyWlLk6GJQsqaUBKTNV-1">
          <mxGeometry x="40" y="280" width="160" height="86" as="geometry" />
        </mxCell>
        <mxCell id="YsifBy8PywC1y6vnwY9C-6" value="+ field: type" style="text;strokeColor=none;fillColor=none;align=left;verticalAlign=top;spacingLeft=4;spacingRight=4;overflow=hidden;rotatable=0;points=[[0,0.5],[1,0.5]];portConstraint=eastwest;" vertex="1" parent="YsifBy8PywC1y6vnwY9C-5">
          <mxGeometry y="26" width="160" height="26" as="geometry" />
        </mxCell>
        <mxCell id="YsifBy8PywC1y6vnwY9C-7" value="" style="line;strokeWidth=1;fillColor=none;align=left;verticalAlign=middle;spacingTop=-1;spacingLeft=3;spacingRight=3;rotatable=0;labelPosition=right;points=[];portConstraint=eastwest;" vertex="1" parent="YsifBy8PywC1y6vnwY9C-5">
          <mxGeometry y="52" width="160" height="8" as="geometry" />
        </mxCell>
        <mxCell id="YsifBy8PywC1y6vnwY9C-8" value="+ createProduct(): Product" style="text;strokeColor=none;fillColor=none;align=left;verticalAlign=top;spacingLeft=4;spacingRight=4;overflow=hidden;rotatable=0;points=[[0,0.5],[1,0.5]];portConstraint=eastwest;" vertex="1" parent="YsifBy8PywC1y6vnwY9C-5">
          <mxGeometry y="60" width="160" height="26" as="geometry" />
        </mxCell>
        <mxCell id="YsifBy8PywC1y6vnwY9C-9" value="ConcreateCreatorB" style="swimlane;fontStyle=1;align=center;verticalAlign=top;childLayout=stackLayout;horizontal=1;startSize=26;horizontalStack=0;resizeParent=1;resizeParentMax=0;resizeLast=0;collapsible=1;marginBottom=0;" vertex="1" parent="WIyWlLk6GJQsqaUBKTNV-1">
          <mxGeometry x="280" y="280" width="160" height="86" as="geometry" />
        </mxCell>
        <mxCell id="YsifBy8PywC1y6vnwY9C-10" value="+ field: type" style="text;strokeColor=none;fillColor=none;align=left;verticalAlign=top;spacingLeft=4;spacingRight=4;overflow=hidden;rotatable=0;points=[[0,0.5],[1,0.5]];portConstraint=eastwest;" vertex="1" parent="YsifBy8PywC1y6vnwY9C-9">
          <mxGeometry y="26" width="160" height="26" as="geometry" />
        </mxCell>
        <mxCell id="YsifBy8PywC1y6vnwY9C-11" value="" style="line;strokeWidth=1;fillColor=none;align=left;verticalAlign=middle;spacingTop=-1;spacingLeft=3;spacingRight=3;rotatable=0;labelPosition=right;points=[];portConstraint=eastwest;" vertex="1" parent="YsifBy8PywC1y6vnwY9C-9">
          <mxGeometry y="52" width="160" height="8" as="geometry" />
        </mxCell>
        <mxCell id="YsifBy8PywC1y6vnwY9C-12" value="+ createProduct(): Product" style="text;strokeColor=none;fillColor=none;align=left;verticalAlign=top;spacingLeft=4;spacingRight=4;overflow=hidden;rotatable=0;points=[[0,0.5],[1,0.5]];portConstraint=eastwest;" vertex="1" parent="YsifBy8PywC1y6vnwY9C-9">
          <mxGeometry y="60" width="160" height="26" as="geometry" />
        </mxCell>
        <mxCell id="YsifBy8PywC1y6vnwY9C-13" value="Factory Method" style="text;strokeColor=none;fillColor=none;html=1;fontSize=24;fontStyle=1;verticalAlign=middle;align=center;" vertex="1" parent="WIyWlLk6GJQsqaUBKTNV-1">
          <mxGeometry x="320" width="200" height="40" as="geometry" />
        </mxCell>
        <mxCell id="YsifBy8PywC1y6vnwY9C-14" value="ConcreateProductA" style="swimlane;fontStyle=1;align=center;verticalAlign=top;childLayout=stackLayout;horizontal=1;startSize=26;horizontalStack=0;resizeParent=1;resizeParentMax=0;resizeLast=0;collapsible=1;marginBottom=0;" vertex="1" parent="WIyWlLk6GJQsqaUBKTNV-1">
          <mxGeometry x="520" y="240" width="160" height="86" as="geometry" />
        </mxCell>
        <mxCell id="YsifBy8PywC1y6vnwY9C-15" value="+ field: type" style="text;strokeColor=none;fillColor=none;align=left;verticalAlign=top;spacingLeft=4;spacingRight=4;overflow=hidden;rotatable=0;points=[[0,0.5],[1,0.5]];portConstraint=eastwest;" vertex="1" parent="YsifBy8PywC1y6vnwY9C-14">
          <mxGeometry y="26" width="160" height="26" as="geometry" />
        </mxCell>
        <mxCell id="YsifBy8PywC1y6vnwY9C-16" value="" style="line;strokeWidth=1;fillColor=none;align=left;verticalAlign=middle;spacingTop=-1;spacingLeft=3;spacingRight=3;rotatable=0;labelPosition=right;points=[];portConstraint=eastwest;" vertex="1" parent="YsifBy8PywC1y6vnwY9C-14">
          <mxGeometry y="52" width="160" height="8" as="geometry" />
        </mxCell>
        <mxCell id="YsifBy8PywC1y6vnwY9C-17" value="+ doStuff()" style="text;strokeColor=none;fillColor=none;align=left;verticalAlign=top;spacingLeft=4;spacingRight=4;overflow=hidden;rotatable=0;points=[[0,0.5],[1,0.5]];portConstraint=eastwest;" vertex="1" parent="YsifBy8PywC1y6vnwY9C-14">
          <mxGeometry y="60" width="160" height="26" as="geometry" />
        </mxCell>
        <mxCell id="YsifBy8PywC1y6vnwY9C-18" value="ConcreateProductB" style="swimlane;fontStyle=1;align=center;verticalAlign=top;childLayout=stackLayout;horizontal=1;startSize=26;horizontalStack=0;resizeParent=1;resizeParentMax=0;resizeLast=0;collapsible=1;marginBottom=0;" vertex="1" parent="WIyWlLk6GJQsqaUBKTNV-1">
          <mxGeometry x="760" y="242" width="160" height="86" as="geometry" />
        </mxCell>
        <mxCell id="YsifBy8PywC1y6vnwY9C-19" value="+ field: type" style="text;strokeColor=none;fillColor=none;align=left;verticalAlign=top;spacingLeft=4;spacingRight=4;overflow=hidden;rotatable=0;points=[[0,0.5],[1,0.5]];portConstraint=eastwest;" vertex="1" parent="YsifBy8PywC1y6vnwY9C-18">
          <mxGeometry y="26" width="160" height="26" as="geometry" />
        </mxCell>
        <mxCell id="YsifBy8PywC1y6vnwY9C-20" value="" style="line;strokeWidth=1;fillColor=none;align=left;verticalAlign=middle;spacingTop=-1;spacingLeft=3;spacingRight=3;rotatable=0;labelPosition=right;points=[];portConstraint=eastwest;" vertex="1" parent="YsifBy8PywC1y6vnwY9C-18">
          <mxGeometry y="52" width="160" height="8" as="geometry" />
        </mxCell>
        <mxCell id="YsifBy8PywC1y6vnwY9C-21" value="+ doStuff()" style="text;strokeColor=none;fillColor=none;align=left;verticalAlign=top;spacingLeft=4;spacingRight=4;overflow=hidden;rotatable=0;points=[[0,0.5],[1,0.5]];portConstraint=eastwest;" vertex="1" parent="YsifBy8PywC1y6vnwY9C-18">
          <mxGeometry y="60" width="160" height="26" as="geometry" />
        </mxCell>
        <mxCell id="YsifBy8PywC1y6vnwY9C-22" value="&lt;&lt;interface&gt;&gt;&#xa;Product" style="swimlane;fontStyle=0;align=center;verticalAlign=top;childLayout=stackLayout;horizontal=1;startSize=40;horizontalStack=0;resizeParent=1;resizeParentMax=0;resizeLast=0;collapsible=1;marginBottom=0;" vertex="1" parent="WIyWlLk6GJQsqaUBKTNV-1">
          <mxGeometry x="600" y="70" width="240" height="80" as="geometry" />
        </mxCell>
        <mxCell id="YsifBy8PywC1y6vnwY9C-24" value="" style="line;strokeWidth=1;fillColor=none;align=left;verticalAlign=middle;spacingTop=-1;spacingLeft=3;spacingRight=3;rotatable=0;labelPosition=right;points=[];portConstraint=eastwest;" vertex="1" parent="YsifBy8PywC1y6vnwY9C-22">
          <mxGeometry y="40" width="240" height="8" as="geometry" />
        </mxCell>
        <mxCell id="YsifBy8PywC1y6vnwY9C-25" value="+ doStuff():Â " style="text;strokeColor=none;fillColor=none;align=left;verticalAlign=top;spacingLeft=4;spacingRight=4;overflow=hidden;rotatable=0;points=[[0,0.5],[1,0.5]];portConstraint=eastwest;" vertex="1" parent="YsifBy8PywC1y6vnwY9C-22">
          <mxGeometry y="48" width="240" height="32" as="geometry" />
        </mxCell>
        <mxCell id="YsifBy8PywC1y6vnwY9C-26" value="" style="endArrow=block;dashed=1;endFill=0;endSize=12;html=1;rounded=0;exitX=0.5;exitY=0;exitDx=0;exitDy=0;" edge="1" parent="WIyWlLk6GJQsqaUBKTNV-1" source="YsifBy8PywC1y6vnwY9C-14">
          <mxGeometry width="160" relative="1" as="geometry">
            <mxPoint x="580" y="210" as="sourcePoint" />
            <mxPoint x="720" y="150" as="targetPoint" />
            <Array as="points">
              <mxPoint x="600" y="200" />
              <mxPoint x="720" y="200" />
            </Array>
          </mxGeometry>
        </mxCell>
        <mxCell id="YsifBy8PywC1y6vnwY9C-27" value="" style="endArrow=block;dashed=1;endFill=0;endSize=12;html=1;rounded=0;exitX=0.5;exitY=0;exitDx=0;exitDy=0;" edge="1" parent="WIyWlLk6GJQsqaUBKTNV-1" source="YsifBy8PywC1y6vnwY9C-18">
          <mxGeometry width="160" relative="1" as="geometry">
            <mxPoint x="610" y="250" as="sourcePoint" />
            <mxPoint x="720" y="150" as="targetPoint" />
            <Array as="points">
              <mxPoint x="840" y="200" />
              <mxPoint x="800" y="200" />
              <mxPoint x="720" y="200" />
            </Array>
          </mxGeometry>
        </mxCell>
        <mxCell id="YsifBy8PywC1y6vnwY9C-36" style="edgeStyle=orthogonalEdgeStyle;rounded=0;orthogonalLoop=1;jettySize=auto;html=1;entryX=0.492;entryY=1.038;entryDx=0;entryDy=0;entryPerimeter=0;" edge="1" parent="WIyWlLk6GJQsqaUBKTNV-1" source="YsifBy8PywC1y6vnwY9C-28" target="YsifBy8PywC1y6vnwY9C-8">
          <mxGeometry relative="1" as="geometry" />
        </mxCell>
        <mxCell id="YsifBy8PywC1y6vnwY9C-28" value="&lt;b&gt;return new &lt;/b&gt;ConcreateProductA()" style="text;html=1;align=center;verticalAlign=middle;whiteSpace=wrap;rounded=1;sketch=0;shadow=0;fillColor=#fff2cc;strokeColor=#d6b656;" vertex="1" parent="WIyWlLk6GJQsqaUBKTNV-1">
          <mxGeometry x="40" y="400" width="230" height="40" as="geometry" />
        </mxCell>
        <mxCell id="YsifBy8PywC1y6vnwY9C-29" value="&amp;lt;&amp;lt; Creational Patterns &amp;gt;&amp;gt;" style="text;html=1;strokeColor=none;fillColor=none;align=center;verticalAlign=middle;whiteSpace=wrap;rounded=0;" vertex="1" parent="WIyWlLk6GJQsqaUBKTNV-1">
          <mxGeometry x="40" y="10" width="140" height="30" as="geometry" />
        </mxCell>
        <mxCell id="YsifBy8PywC1y6vnwY9C-30" value="Extends" style="endArrow=block;endSize=16;endFill=0;html=1;rounded=0;exitX=0.5;exitY=0;exitDx=0;exitDy=0;entryX=0.492;entryY=0.975;entryDx=0;entryDy=0;entryPerimeter=0;" edge="1" parent="WIyWlLk6GJQsqaUBKTNV-1">
          <mxGeometry width="160" relative="1" as="geometry">
            <mxPoint x="120" y="285" as="sourcePoint" />
            <mxPoint x="238.72000000000003" y="184" as="targetPoint" />
            <Array as="points">
              <mxPoint x="120" y="239" />
              <mxPoint x="240" y="239" />
            </Array>
          </mxGeometry>
        </mxCell>
        <mxCell id="YsifBy8PywC1y6vnwY9C-34" value="Extends" style="endArrow=block;endSize=16;endFill=0;html=1;rounded=0;entryX=0.503;entryY=0.975;entryDx=0;entryDy=0;entryPerimeter=0;exitX=0.5;exitY=0;exitDx=0;exitDy=0;" edge="1" parent="WIyWlLk6GJQsqaUBKTNV-1">
          <mxGeometry width="160" relative="1" as="geometry">
            <mxPoint x="360" y="279" as="sourcePoint" />
            <mxPoint x="240.48000000000002" y="182" as="targetPoint" />
            <Array as="points">
              <mxPoint x="360" y="239" />
              <mxPoint x="240" y="239" />
            </Array>
          </mxGeometry>
        </mxCell>
        <mxCell id="YsifBy8PywC1y6vnwY9C-42" style="edgeStyle=orthogonalEdgeStyle;rounded=0;orthogonalLoop=1;jettySize=auto;html=1;entryX=1.013;entryY=0.093;entryDx=0;entryDy=0;entryPerimeter=0;" edge="1" parent="WIyWlLk6GJQsqaUBKTNV-1" source="YsifBy8PywC1y6vnwY9C-37" target="YsifBy8PywC1y6vnwY9C-1">
          <mxGeometry relative="1" as="geometry">
            <Array as="points">
              <mxPoint x="465" y="80" />
              <mxPoint x="330" y="80" />
              <mxPoint x="330" y="81" />
            </Array>
          </mxGeometry>
        </mxCell>
        <mxCell id="YsifBy8PywC1y6vnwY9C-37" value="Product p =&amp;nbsp;&amp;nbsp;createProduct()&lt;br&gt;p.doStuff()" style="text;html=1;align=center;verticalAlign=middle;whiteSpace=wrap;rounded=1;sketch=0;shadow=0;fillColor=#fff2cc;strokeColor=#d6b656;" vertex="1" parent="WIyWlLk6GJQsqaUBKTNV-1">
          <mxGeometry x="350" y="120" width="230" height="40" as="geometry" />
        </mxCell>
      </root>
    </mxGraphModel>
  </diagram>
</mxfile>
